<svg xmlns="http://www.w3.org/2000/svg" width="26.963" height="31.153" viewBox="0 0 26.963 31.153">
  <path id="Cart" d="M26.957,30.129,24.59,7.581a.927.927,0,0,0-.922-.83h-4.45V5.736a5.736,5.736,0,0,0-11.472,0V6.751H3.294a.927.927,0,0,0-.922.83L0,30.129a.927.927,0,0,0,.922,1.024H26.035a.927.927,0,0,0,.922-1.024ZM9.6,5.736a3.882,3.882,0,0,1,7.764,0V6.751H9.6ZM1.956,29.3,4.129,8.605H7.745v2.043a.927.927,0,1,0,1.854,0V8.605h7.764v2.043a.927.927,0,1,0,1.854,0V8.605h3.615L25.005,29.3Zm0,0" transform="translate(0.001)" fill="#03235a"/>
</svg>
