<svg xmlns="http://www.w3.org/2000/svg" width="70.274" height="61.396" viewBox="0 0 70.274 61.396">
  <g id="credit-card" transform="translate(0 -32.34)">
    <g id="Group_11" data-name="Group 11" transform="translate(0 32.34)">
      <g id="Group_10" data-name="Group 10">
        <path id="Path_22" data-name="Path 22" d="M61.072,32.34H9.2a9.213,9.213,0,0,0-9.2,9.2V71.407a9.213,9.213,0,0,0,9.2,9.2H36.7v8.055a5.078,5.078,0,0,0,5.074,5.072H57.064a5.077,5.077,0,0,0,5.072-5.072V80.542a9.212,9.212,0,0,0,8.138-9.135V41.542A9.213,9.213,0,0,0,61.072,32.34ZM59.45,88.664a2.388,2.388,0,0,1-2.386,2.386H41.769a2.39,2.39,0,0,1-2.388-2.386V74.34H59.45V88.664Zm-15.5-17.01V66.559a5.48,5.48,0,0,1,10.938,0v5.095Zm23.643-.246a6.512,6.512,0,0,1-5.452,6.409V73a1.342,1.342,0,0,0-1.342-1.342H57.571V66.56a8.162,8.162,0,0,0-16.309,0v5.095H38.04A1.342,1.342,0,0,0,36.7,73v4.927H9.2a6.524,6.524,0,0,1-6.516-6.516V53.3h64.9Zm0-20.8H2.686V46.029h64.9v4.583Zm0-7.268H2.686v-1.8A6.523,6.523,0,0,1,9.2,35.027H61.073a6.524,6.524,0,0,1,6.516,6.516Z" transform="translate(0 -32.34)" fill="#f0243d"/>
        <path id="Path_23" data-name="Path 23" d="M60.037,309.884H81.453a1.342,1.342,0,0,0,0-2.685H60.037a1.342,1.342,0,0,0,0,2.685Z" transform="translate(-50.639 -269.473)" fill="#f0243d"/>
        <path id="Path_24" data-name="Path 24" d="M331.5,359.814v3a1.342,1.342,0,0,0,2.685,0v-3a4.326,4.326,0,1,0-2.685,0Zm1.342-5.734a1.642,1.642,0,1,1-1.64,1.642A1.644,1.644,0,0,1,332.845,354.08Z" transform="translate(-283.429 -307.603)" fill="#f0243d"/>
      </g>
    </g>
  </g>
</svg>
