<svg xmlns="http://www.w3.org/2000/svg" width="14.995" height="26.42" viewBox="0 0 14.995 26.42">
  <path id="facebook" d="M9.762,26.42H5.532A1.283,1.283,0,0,1,4.25,25.138V15.6H1.782A1.283,1.283,0,0,1,.5,14.314V10.225A1.283,1.283,0,0,1,1.782,8.943H4.25V6.9a6.972,6.972,0,0,1,1.844-5,6.64,6.64,0,0,1,4.9-1.9l3.227.005A1.283,1.283,0,0,1,15.5,1.287v3.8a1.283,1.283,0,0,1-1.281,1.282H12.042c-.663,0-.831.133-.867.174-.059.068-.13.258-.13.786V8.943h3.007a1.3,1.3,0,0,1,.634.161,1.286,1.286,0,0,1,.659,1.121l0,4.089A1.283,1.283,0,0,1,14.061,15.6H11.044v9.543A1.283,1.283,0,0,1,9.762,26.42ZM5.8,24.871H9.5V14.9a.857.857,0,0,1,.856-.856h3.443V10.492H10.351A.857.857,0,0,1,9.5,9.636V7.325a2.638,2.638,0,0,1,.518-1.81,2.625,2.625,0,0,1,2.028-.7h1.905V1.554l-2.958,0C7.788,1.549,5.8,3.6,5.8,6.9V9.636a.857.857,0,0,1-.855.856H2.049v3.554H4.943A.857.857,0,0,1,5.8,14.9ZM14.213,1.554h0Zm0,0" transform="translate(-0.5)" fill="#03235a"/>
</svg>
