<svg xmlns="http://www.w3.org/2000/svg" width="38.018" height="38.388" viewBox="0 0 38.018 38.388">
  <g id="filter_icon" data-name="filter icon" transform="translate(-80.334 102.655) rotate(-90)">
    <path id="Path_36" data-name="Path 36" d="M101.153,83.307H78.282a4.85,4.85,0,0,0-8.944,0h-3.57a1.392,1.392,0,1,0,0,2.775h3.57a4.85,4.85,0,0,0,8.944,0h22.87a1.392,1.392,0,1,0,0-2.775ZM73.81,86.28a1.59,1.59,0,1,1,1.715-1.585A1.656,1.656,0,0,1,73.81,86.28Z" transform="translate(0)" fill="#03235a"/>
    <path id="Path_37" data-name="Path 37" d="M101.153,211.84h-3.57a4.85,4.85,0,0,0-8.944,0H65.769a1.392,1.392,0,1,0,0,2.775h22.87a4.85,4.85,0,0,0,8.944,0h3.57a1.392,1.392,0,1,0,0-2.775Zm-8.042,2.973a1.59,1.59,0,1,1,1.715-1.585A1.656,1.656,0,0,1,93.111,214.813Z" transform="translate(0 -113.885)" fill="#03235a"/>
    <path id="Path_38" data-name="Path 38" d="M101.153,340.373H84.716a4.85,4.85,0,0,0-8.944,0h-10a1.392,1.392,0,1,0,0,2.775h10a4.85,4.85,0,0,0,8.944,0h16.437a1.392,1.392,0,1,0,0-2.775Zm-20.909,2.973a1.59,1.59,0,1,1,1.715-1.585A1.656,1.656,0,0,1,80.244,343.346Z" transform="translate(0 -227.769)" fill="#03235a"/>
  </g>
</svg>
