<svg xmlns="http://www.w3.org/2000/svg" width="94.54" height="64.602" viewBox="0 0 94.54 64.602">
  <g id="Free_delivery" data-name="Free delivery" transform="translate(-2 -21)">
    <path id="Path_25" data-name="Path 25" d="M94.964,71.421H93.389V54.089A14.2,14.2,0,0,0,79.208,39.908H68.178V22.576A1.576,1.576,0,0,0,66.6,21H3.576A1.576,1.576,0,0,0,2,22.576V73a1.576,1.576,0,0,0,1.576,1.576H5.151v1.576a4.727,4.727,0,0,0,4.727,4.727H17.46a9.432,9.432,0,0,0,16.349,0H71.033a9.432,9.432,0,0,0,16.349,0h4.431a4.727,4.727,0,0,0,4.727-4.727V73A1.576,1.576,0,0,0,94.964,71.421ZM90.237,54.089V57.24H76.056a1.576,1.576,0,0,1-1.576-1.576V43.059h4.727a11.042,11.042,0,0,1,11.03,11.03ZM71.329,43.059V55.665a4.727,4.727,0,0,0,4.727,4.727H90.237v11.03H87.382a9.432,9.432,0,0,0-16.349,0H68.178V43.059ZM33.81,71.421a9.432,9.432,0,0,0-16.349,0H5.151v-6.3H65.027v6.3ZM5.151,24.151H65.027V61.967H5.151ZM9.878,77.724A1.576,1.576,0,0,1,8.3,76.148V74.573h8.02a8.824,8.824,0,0,0,0,3.151Zm15.757,4.727a6.3,6.3,0,1,1,6.3-6.3A6.3,6.3,0,0,1,25.635,82.451Zm9.312-4.727a8.824,8.824,0,0,0,0-3.151H69.9a8.824,8.824,0,0,0,0,3.151Zm44.26,4.727a6.3,6.3,0,1,1,6.3-6.3A6.3,6.3,0,0,1,79.208,82.451Zm14.181-6.3a1.576,1.576,0,0,1-1.576,1.576H88.52a8.824,8.824,0,0,0,0-3.151h4.869Z" fill="#f0243d"/>
  </g>
</svg>
