<svg xmlns="http://www.w3.org/2000/svg" width="63.819" height="73.003" viewBox="0 0 63.819 73.003">
  <g id="headphones" transform="translate(-26.48)">
    <g id="Group_12" data-name="Group 12" transform="translate(26.48)">
      <path id="Path_31" data-name="Path 31" d="M83.362,24.973a24.973,24.973,0,0,0-49.945,0c-3.566.444-6.937,2.775-6.937,8.185V46.2c0,6.1,4.273,8.324,8.324,8.324h4.023a1.387,1.387,0,0,0,1.387-1.387V26.277a1.387,1.387,0,0,0-1.387-1.387H36.192a22.2,22.2,0,0,1,44.4,0H77.951a1.387,1.387,0,0,0-1.387,1.387V53.095a1.387,1.387,0,0,0,1.387,1.387h2.636c-.388,9.531-4.967,11.765-14.11,12.167v-.93A2.775,2.775,0,0,0,63.7,62.945H54.977A2.775,2.775,0,0,0,52.2,65.72v4.509A2.775,2.775,0,0,0,54.977,73h8.754a2.775,2.775,0,0,0,2.775-2.775v-.8c8.8-.4,16.4-2.22,16.857-15.025,3.566-.444,6.937-2.775,6.937-8.185V33.172C90.3,27.734,86.942,25.417,83.362,24.973ZM37.44,27.567v24.14H34.735c-2.053,0-5.549-.721-5.549-5.549V33.117c0-4.786,3.455-5.549,5.549-5.549ZM63.731,68.134v2.109H54.977V65.734h8.754ZM87.524,46.2c0,4.786-3.455,5.549-5.549,5.549H79.339V27.664h2.705c2.053,0,5.549.721,5.549,5.549Z" transform="translate(-26.48 0)" fill="#f0243d"/>
    </g>
  </g>
</svg>
