<svg xmlns="http://www.w3.org/2000/svg" width="24.529" height="24.53" viewBox="0 0 24.529 24.53">
  <path id="instagram" d="M12.506,24.531h-.244c-1.923,0-3.7-.044-5.427-.149A7.254,7.254,0,0,1,2.653,22.8,6.712,6.712,0,0,1,.4,19.157,16.135,16.135,0,0,1,.028,15.3C.015,14.409,0,13.347,0,12.268s.015-2.145.028-3.04A16.137,16.137,0,0,1,.4,5.375,6.712,6.712,0,0,1,2.653,1.734,7.255,7.255,0,0,1,6.835.151C8.563.046,10.34,0,12.267,0s3.7.044,5.427.149a7.254,7.254,0,0,1,4.182,1.583,6.711,6.711,0,0,1,2.255,3.641,16.136,16.136,0,0,1,.37,3.853c.012.9.025,1.957.028,3.036v0c0,1.079-.015,2.14-.028,3.036a16.128,16.128,0,0,1-.37,3.853A6.711,6.711,0,0,1,21.875,22.8a7.254,7.254,0,0,1-4.182,1.583C16.039,24.482,14.339,24.531,12.506,24.531Zm-.244-1.917c1.891,0,3.628-.043,5.315-.146a5.279,5.279,0,0,0,3.087-1.155,4.838,4.838,0,0,0,1.61-2.63,14.68,14.68,0,0,0,.311-3.405c.012-.889.025-1.943.028-3.012s-.015-2.122-.028-3.012a14.682,14.682,0,0,0-.311-3.405,4.838,4.838,0,0,0-1.61-2.63,5.28,5.28,0,0,0-3.087-1.155c-1.687-.1-3.424-.15-5.311-.146s-3.628.043-5.315.146A5.28,5.28,0,0,0,3.864,3.219a4.838,4.838,0,0,0-1.61,2.63,14.681,14.681,0,0,0-.311,3.405c-.012.89-.025,1.944-.028,3.014s.015,2.119.028,3.009a14.68,14.68,0,0,0,.311,3.405,4.838,4.838,0,0,0,1.61,2.63,5.28,5.28,0,0,0,3.087,1.155C8.638,22.571,10.376,22.619,12.262,22.614Zm-.046-4.359A5.989,5.989,0,1,1,18.2,12.266,6,6,0,0,1,12.216,18.255Zm0-10.061a4.072,4.072,0,1,0,4.072,4.072A4.077,4.077,0,0,0,12.216,8.194Zm6.659-3.833A1.437,1.437,0,1,0,20.313,5.8,1.437,1.437,0,0,0,18.876,4.361Zm0,0" transform="translate(0 -0.001)" fill="#03235a"/>
</svg>
