<svg xmlns="http://www.w3.org/2000/svg" xmlns:xlink="http://www.w3.org/1999/xlink" width="804" height="804" viewBox="0 0 804 804">
  <defs>
    <filter id="Subtraction_1" x="0" y="0" width="804" height="804" filterUnits="userSpaceOnUse">
      <feOffset dy="3" input="SourceAlpha"/>
      <feGaussianBlur stdDeviation="32.5" result="blur"/>
      <feFlood flood-opacity="0.141"/>
      <feComposite operator="in" in2="blur"/>
      <feComposite in="SourceGraphic"/>
    </filter>
  </defs>
  <g transform="matrix(1, 0, 0, 1, 0, 0)" filter="url(#Subtraction_1)">
    <path id="Subtraction_1-2" data-name="Subtraction 1" d="M246.5,422a306.748,306.748,0,0,1-61.367-6.186,302.962,302.962,0,0,1-57.158-17.743A304.525,304.525,0,0,1,76.251,370,306.185,306.185,0,0,1-6,287.749a304.1,304.1,0,0,1,0-340.5A306.182,306.182,0,0,1,76.251-135a304.527,304.527,0,0,1,51.724-28.075,302.969,302.969,0,0,1,57.158-17.743,307.468,307.468,0,0,1,122.735,0,302.968,302.968,0,0,1,57.158,17.743A304.53,304.53,0,0,1,416.749-135,306.183,306.183,0,0,1,499-52.749a304.1,304.1,0,0,1,0,340.5A306.186,306.186,0,0,1,416.749,370a304.529,304.529,0,0,1-51.724,28.075,302.961,302.961,0,0,1-57.158,17.743A306.749,306.749,0,0,1,246.5,422Zm0-553.719a251.058,251.058,0,0,0-50.226,5.063,247.854,247.854,0,0,0-89.114,37.5A249.948,249.948,0,0,0,16.866,20.493,247.967,247.967,0,0,0,2.344,67.274a251.646,251.646,0,0,0,0,100.453,247.849,247.849,0,0,0,37.5,89.114,250.6,250.6,0,0,0,67.316,67.315,247.853,247.853,0,0,0,89.114,37.5,251.648,251.648,0,0,0,100.453,0,247.852,247.852,0,0,0,89.114-37.5,249.948,249.948,0,0,0,90.293-109.649,247.971,247.971,0,0,0,14.521-46.781,251.644,251.644,0,0,0,0-100.453,247.849,247.849,0,0,0-37.5-89.114,250.587,250.587,0,0,0-67.315-67.316,247.852,247.852,0,0,0-89.114-37.5A251.059,251.059,0,0,0,246.5-131.719Z" transform="translate(155.5 281.5)" fill="#fed530"/>
  </g>
</svg>
