<svg xmlns="http://www.w3.org/2000/svg" width="24.495" height="20.048" viewBox="0 0 24.495 20.048">
  <path id="twitter" d="M24.5,2.678c-1.541.071-1.507.065-1.681.08L23.726.152S20.878,1.2,20.156,1.387A5.715,5.715,0,0,0,13.425.846a4.662,4.662,0,0,0-2.241,4.793A12.433,12.433,0,0,1,3.129,1.1L2.454.292l-.5.927a5.6,5.6,0,0,0-.6,3.772,5.42,5.42,0,0,0,.525,1.473L1.3,6.24l-.069.969A5.168,5.168,0,0,0,2.1,10.281a5.463,5.463,0,0,0,.683.842l-.3-.046.366,1.11A5.4,5.4,0,0,0,5.627,15.4c-1.293.549-2.338.9-4.056,1.464L0,17.381l1.451.794a15.234,15.234,0,0,0,4.441,1.616c4.295.674,9.13.125,12.385-2.807,2.742-2.469,3.641-5.982,3.455-9.637a2.284,2.284,0,0,1,.427-1.487C22.766,5.049,24.491,2.683,24.5,2.678ZM21.011,5A3.719,3.719,0,0,0,20.3,7.42c.189,3.687-.815,6.546-2.982,8.5-2.532,2.28-6.615,3.175-11.2,2.455a11.11,11.11,0,0,1-2.4-.713,38.062,38.062,0,0,0,4.348-1.787l2.507-1.187L7.8,14.51a3.914,3.914,0,0,1-3.108-1.771,4.964,4.964,0,0,0,1.054-.176l2.64-.735-2.662-.652A3.964,3.964,0,0,1,3.3,9.493a4.06,4.06,0,0,1-.525-1.158,6.645,6.645,0,0,0,1.08.172l2.464.244L4.369,7.228A4.109,4.109,0,0,1,2.812,2.9,14.279,14.279,0,0,0,12.875,7.229a8.5,8.5,0,0,0-.147-1.217,3.3,3.3,0,0,1,1.448-3.945,4.287,4.287,0,0,1,5.057.419,1.284,1.284,0,0,0,1.178.315,9.919,9.919,0,0,0,.971-.3l-.619,1.768h.79Zm0,0" transform="translate(0 0)" fill="#03235a"/>
</svg>
