<svg xmlns="http://www.w3.org/2000/svg" width="72.562" height="72.562" viewBox="0 0 72.562 72.562">
  <g id="warranty" transform="translate(0.585 0.585)">
    <path id="Path_32" data-name="Path 32" d="M63.024,39.321a.976.976,0,0,0-.69.286l-17,17-9.785-9.785a1,1,0,0,0-1.38,0l-3.944,3.945a.976.976,0,0,0,0,1.38l14.421,14.42a.975.975,0,0,0,1.38,0L67.658,44.932a.977.977,0,0,0,0-1.381l-3.944-3.944a.976.976,0,0,0-.69-.286ZM45.332,64.5,32.293,51.459l2.566-2.566,9.784,9.786a.975.975,0,0,0,1.38,0l17-17,2.566,2.566Z" transform="translate(-13.243 -17.392)" fill="#f0243d" stroke="#f0243d" stroke-width="0.8"/>
    <path id="Path_33" data-name="Path 33" d="M42.923,16.332A26.591,26.591,0,1,0,69.514,42.923,26.591,26.591,0,0,0,42.923,16.332Zm0,51.23A24.639,24.639,0,1,1,67.562,42.923,24.639,24.639,0,0,1,42.923,67.562Z" transform="translate(-7.227 -7.228)" fill="#f0243d" stroke="#f0243d" stroke-width="0.8"/>
    <path id="Path_34" data-name="Path 34" d="M70.3,38.827a4.979,4.979,0,0,0,0-6.262l-1.6-2A3.059,3.059,0,0,1,68.15,27.8l.714-2.449a5.04,5.04,0,0,0-2.4-5.8l-2.235-1.227a3.058,3.058,0,0,1-1.57-2.343l-.279-2.541a4.978,4.978,0,0,0-4.43-4.43l-2.541-.279a3.056,3.056,0,0,1-2.343-1.57L51.837,4.931a4.978,4.978,0,0,0-5.8-2.4l-2.449.713a3.063,3.063,0,0,1-2.767-.549l-2-1.6a4.98,4.98,0,0,0-6.262,0l-2,1.6a3.068,3.068,0,0,1-2.766.548l-2.449-.714a5.039,5.039,0,0,0-5.8,2.4L18.329,7.165a3.058,3.058,0,0,1-2.343,1.57l-2.541.279a4.978,4.978,0,0,0-4.43,4.43l-.279,2.541a3.056,3.056,0,0,1-1.57,2.343L4.931,19.555a4.98,4.98,0,0,0-2.4,5.8L3.244,27.8a3.063,3.063,0,0,1-.549,2.767l-1.6,2a4.979,4.979,0,0,0,0,6.262l1.6,2a3.059,3.059,0,0,1,.548,2.766l-.714,2.449a5.04,5.04,0,0,0,2.4,5.8l2.235,1.227a3.058,3.058,0,0,1,1.57,2.343l.279,2.541a4.978,4.978,0,0,0,4.43,4.43l2.541.279a3.056,3.056,0,0,1,2.343,1.57l1.227,2.236a4.978,4.978,0,0,0,5.8,2.4l2.448-.715a3.068,3.068,0,0,1,2.767.549l2,1.6a4.979,4.979,0,0,0,6.262,0l2-1.6a3.06,3.06,0,0,1,2.766-.548l2.449.714a4.979,4.979,0,0,0,5.8-2.4l1.227-2.235a3.058,3.058,0,0,1,2.343-1.57l2.541-.279a4.978,4.978,0,0,0,4.43-4.43l.279-2.541a3.056,3.056,0,0,1,1.57-2.343l2.236-1.227a4.98,4.98,0,0,0,2.4-5.8l-.715-2.448a3.063,3.063,0,0,1,.549-2.767Zm-3.124.777a5.017,5.017,0,0,0-.9,4.534l.715,2.448a3.039,3.039,0,0,1-1.466,3.536L63.288,51.35a5.009,5.009,0,0,0-2.572,3.844l-.279,2.541a3.04,3.04,0,0,1-2.7,2.7l-2.542.279a5.012,5.012,0,0,0-3.844,2.572l-1.227,2.236a3.04,3.04,0,0,1-3.536,1.466l-2.449-.715a5.012,5.012,0,0,0-4.534.9l-2,1.6a3.038,3.038,0,0,1-3.822,0l-2-1.6a5.016,5.016,0,0,0-4.534-.9l-2.448.715a3.042,3.042,0,0,1-3.536-1.466l-1.227-2.236A5.009,5.009,0,0,0,16.2,60.716l-2.541-.279a3.04,3.04,0,0,1-2.7-2.7l-.279-2.542A5.012,5.012,0,0,0,8.1,51.349L5.867,50.122A3.075,3.075,0,0,1,4.4,46.586l.715-2.449a5.014,5.014,0,0,0-.9-4.534l-1.6-2a3.039,3.039,0,0,1,0-3.822l1.6-2a5.017,5.017,0,0,0,.9-4.534L4.4,24.8a3.039,3.039,0,0,1,1.466-3.536L8.1,20.041A5.009,5.009,0,0,0,10.675,16.2l.279-2.541a3.04,3.04,0,0,1,2.707-2.7l2.542-.279A5.012,5.012,0,0,0,20.046,8.1l1.227-2.236A3.077,3.077,0,0,1,24.805,4.4l2.449.715a5.013,5.013,0,0,0,4.534-.9l2-1.6a3.039,3.039,0,0,1,3.822,0l2,1.6a5.021,5.021,0,0,0,4.534.9L46.587,4.4a3.042,3.042,0,0,1,3.536,1.466L51.35,8.1a5.009,5.009,0,0,0,3.844,2.572l2.541.279a3.04,3.04,0,0,1,2.7,2.7l.279,2.542a5.012,5.012,0,0,0,2.572,3.844l2.236,1.227A3.075,3.075,0,0,1,66.991,24.8l-.715,2.449a5.014,5.014,0,0,0,.9,4.534l1.6,2a3.039,3.039,0,0,1,0,3.822Z" transform="translate(0 0)" fill="#f0243d" stroke="#f0243d" stroke-width="0.8"/>
  </g>
</svg>
