<svg id="youtube" xmlns="http://www.w3.org/2000/svg" width="29.115" height="22.437" viewBox="0 0 29.115 22.437">
  <path id="Path_7" data-name="Path 7" d="M10.181,7.879a.911.911,0,0,0-1.376.781v8.492a.911.911,0,0,0,1.376.782l7.12-4.24a.911.911,0,0,0,0-1.564Zm.444,7.673V10.262l4.434,2.648Z" transform="translate(1.877 -1.688)" fill="#03235a"/>
  <path id="Path_8" data-name="Path 8" d="M24.146,3.381a73.433,73.433,0,0,0-19.177,0A5.3,5.3,0,0,0,.542,7.792a35.469,35.469,0,0,0,0,12.357A5.3,5.3,0,0,0,4.969,24.56a67.762,67.762,0,0,0,9.6.63,67.352,67.352,0,0,0,9.576-.628,5.307,5.307,0,0,0,4.425-4.411,35.483,35.483,0,0,0,0-12.359,5.3,5.3,0,0,0-4.427-4.41Zm2.632,16.466a3.491,3.491,0,0,1-2.9,2.914,71.417,71.417,0,0,1-18.643,0,3.491,3.491,0,0,1-2.9-2.914,33.315,33.315,0,0,1,0-11.752,3.494,3.494,0,0,1,2.9-2.914,65.9,65.9,0,0,1,9.319-.61,65.913,65.913,0,0,1,9.322.61,3.491,3.491,0,0,1,2.9,2.914A33.321,33.321,0,0,1,26.778,19.847Z" transform="translate(0 -2.753)" fill="#03235a"/>
</svg>
