<svg xmlns="http://www.w3.org/2000/svg" width="24.495" height="18.877" viewBox="0 0 24.495 18.877">
  <g id="youtube" transform="translate(0)">
    <path id="Path_7" data-name="Path 7" d="M9.962,7.858a.766.766,0,0,0-1.157.657V15.66a.767.767,0,0,0,1.157.658l5.99-3.567a.767.767,0,0,0,0-1.316Zm.374,6.455V9.864l3.73,2.228Z" transform="translate(0.182 -2.65)" fill="#03235a"/>
    <path id="Path_8" data-name="Path 8" d="M20.315,3.282a61.781,61.781,0,0,0-16.134,0A4.463,4.463,0,0,0,.456,6.993a29.841,29.841,0,0,0,0,10.4A4.462,4.462,0,0,0,4.18,21.1a57.01,57.01,0,0,0,8.078.53,56.665,56.665,0,0,0,8.057-.529,4.465,4.465,0,0,0,3.723-3.711,29.852,29.852,0,0,0,0-10.4,4.463,4.463,0,0,0-3.724-3.71Zm2.215,13.853a2.937,2.937,0,0,1-2.439,2.452,60.085,60.085,0,0,1-15.685,0,2.937,2.937,0,0,1-2.44-2.452,28.029,28.029,0,0,1,0-9.887A2.939,2.939,0,0,1,4.406,4.8a55.445,55.445,0,0,1,7.84-.513,55.454,55.454,0,0,1,7.843.513,2.937,2.937,0,0,1,2.44,2.452A28.034,28.034,0,0,1,22.529,17.135Z" transform="translate(0 -2.753)" fill="#03235a"/>
  </g>
</svg>
